<?xml version="1.0" standalone="no"?>
<!DOCTYPE svg PUBLIC "-//W3C//DTD SVG 20010904//EN"
 "http://www.w3.org/TR/2001/REC-SVG-20010904/DTD/svg10.dtd">
<svg version="1.0" xmlns="http://www.w3.org/2000/svg"
 width="220" height="200" viewBox="0 0 866.000000 650.000000"
 preserveAspectRatio="xMidYMid meet">

<g transform="translate(0.000000,650.000000) scale(0.100000,-0.100000)"
fill="#000000" stroke="none">
<path d="M4033 5645 c-537 -68 -1023 -306 -1409 -690 -356 -353 -584 -795
-676 -1305 -20 -110 -22 -159 -22 -400 0 -301 9 -384 73 -626 127 -479 423
-934 815 -1251 336 -270 765 -454 1206 -515 144 -20 508 -17 650 5 748 117
1377 542 1745 1182 501 869 415 1942 -218 2730 -82 102 -288 302 -392 381
-335 255 -698 411 -1120 481 -130 21 -510 26 -652 8z m327 -96 c-77 -68 -112
-88 -169 -95 -36 -5 -52 -3 -50 4 2 5 38 37 79 71 71 57 78 60 130 60 l55 0
-45 -40z m-266 -40 c-65 -65 -77 -72 -125 -80 -29 -5 -55 -6 -57 -4 -6 6 135
138 157 147 9 4 34 7 56 7 l40 1 -71 -71z m536 61 c19 0 5 -14 -67 -60 -90
-58 -92 -59 -148 -53 l-56 6 88 58 c75 50 93 58 123 54 19 -3 46 -5 60 -5z
m-711 -27 c-92 -118 -124 -148 -168 -160 -25 -7 -49 -12 -54 -10 -6 2 14 29
97 127 19 23 42 36 79 45 29 7 54 13 56 14 2 1 -3 -7 -10 -16z m936 -12 l29
-6 -24 -15 c-14 -9 -55 -30 -92 -49 -60 -29 -74 -32 -118 -26 -27 4 -50 10
-50 14 0 3 37 25 83 48 80 41 112 47 172 34z m-1212 -115 c-51 -75 -63 -87
-108 -104 -27 -11 -51 -18 -53 -17 -2 2 22 42 54 89 48 72 63 87 98 100 22 8
47 15 54 15 7 1 -13 -37 -45 -83z m1436 49 l34 -11 -100 -38 c-95 -35 -103
-37 -144 -25 -24 7 -47 15 -51 19 -12 10 185 79 207 73 11 -3 35 -11 54 -18z
m-1646 -126 c-43 -81 -53 -94 -95 -115 -26 -13 -50 -24 -53 -24 -4 0 15 41 42
91 41 78 54 94 93 114 25 13 49 24 53 25 4 0 -14 -41 -40 -91z m1842 50 c25
-11 45 -22 43 -25 -2 -2 -47 -15 -100 -29 -85 -23 -98 -24 -129 -12 -19 8 -43
18 -54 22 -15 6 3 14 75 35 118 35 108 34 165 9z m-2043 -150 c-35 -82 -46
-98 -83 -122 -24 -15 -45 -24 -47 -19 -1 5 14 48 34 95 32 77 41 90 82 115 26
16 48 28 50 27 2 -2 -15 -45 -36 -96z m1418 66 c296 -50 577 -158 810 -312
139 -92 195 -137 319 -258 506 -491 725 -1201 585 -1895 -61 -303 -196 -603
-385 -852 -138 -181 -392 -409 -577 -517 -386 -224 -809 -326 -1219 -293 -755
62 -1385 485 -1721 1158 -217 436 -270 950 -146 1434 179 701 710 1254 1412
1471 104 32 265 65 387 79 113 12 422 4 535 -15z m825 -17 c25 -12 45 -25 45
-28 0 -3 -44 -13 -97 -22 l-98 -15 -50 25 c-27 14 -45 27 -38 29 11 4 155 29
180 32 7 0 33 -9 58 -21z m-2433 -169 c-26 -86 -32 -97 -71 -127 -24 -18 -45
-31 -47 -29 -2 1 10 46 27 99 27 88 33 100 71 127 23 17 43 29 45 28 1 -2 -10
-46 -25 -98z m2636 42 l44 -28 -44 -7 c-24 -3 -72 -6 -108 -7 -57 -2 -72 2
-110 27 l-44 29 50 6 c122 15 167 11 212 -20z m-2810 -168 c-18 -89 -23 -102
-61 -140 -22 -24 -42 -41 -44 -39 -2 1 6 47 17 102 18 91 23 102 60 137 21 20
41 37 43 37 2 0 -4 -44 -15 -97z m2986 31 c25 -21 45 -38 44 -40 -2 -1 -51 0
-110 3 -105 6 -109 7 -145 39 l-38 33 101 1 101 0 47 -36z m-3149 -190 c-7
-95 -9 -99 -46 -138 l-38 -41 0 35 c0 19 3 65 7 101 7 57 13 73 42 106 19 22
37 38 38 37 2 -1 1 -47 -3 -100z m3199 80 c63 -6 74 -11 113 -47 24 -22 42
-41 41 -43 -2 -1 -51 4 -108 12 -102 14 -106 16 -145 55 l-40 41 35 -6 c19 -3
66 -9 104 -12z m149 -160 c70 -15 82 -21 113 -57 18 -22 32 -42 29 -45 -8 -9
-190 41 -209 57 -10 9 -28 29 -39 45 l-21 29 24 -6 c13 -3 60 -14 103 -23z
m245 -244 c18 -23 31 -44 29 -46 -2 -2 -47 11 -100 29 -86 29 -99 36 -126 74
-17 24 -31 45 -31 47 0 3 44 -10 98 -28 87 -29 101 -37 130 -76z m-195 -2686
c-6 -100 -6 -101 -45 -145 l-40 -44 6 40 c3 22 6 70 6 107 0 64 2 70 36 108
20 22 38 39 40 38 1 -2 0 -48 -3 -104z m-148 -164 c-13 -85 -18 -97 -52 -132
-20 -21 -38 -36 -40 -34 -2 2 3 47 11 101 14 91 18 101 53 137 21 21 39 35 41
30 1 -5 -4 -51 -13 -102z m-3306 84 c80 -15 89 -19 119 -55 38 -45 38 -45 -79
-23 -78 14 -90 19 -125 55 -45 46 -42 46 85 23z m3144 -234 c-24 -94 -28 -102
-69 -135 -24 -20 -44 -33 -44 -28 0 4 11 51 25 103 21 84 28 99 62 127 21 18
41 33 44 33 4 0 -5 -45 -18 -100z m-2954 74 c44 -5 61 -12 93 -43 l40 -37
-109 9 c-108 9 -108 9 -148 48 l-39 39 54 -6 c30 -3 79 -7 109 -10z m2777
-209 c-29 -78 -40 -94 -77 -122 -24 -17 -45 -30 -47 -28 -2 1 11 44 29 95 29
83 37 95 78 126 25 18 47 30 48 26 2 -4 -12 -47 -31 -97z m-2512 40 l50 -35
-112 0 c-106 0 -114 2 -151 28 -22 15 -40 30 -41 35 0 4 46 7 103 7 101 0 103
0 151 -35z m2323 -156 c-41 -87 -48 -96 -91 -116 -25 -13 -46 -18 -46 -13 0 5
19 47 41 93 36 71 48 87 88 109 25 15 47 25 49 24 1 -2 -17 -46 -41 -97z
m-2140 45 c25 -14 43 -27 41 -29 -2 -2 -47 -8 -100 -15 l-98 -11 -51 27 c-57
31 -57 32 32 43 109 14 130 12 176 -15z m1940 -140 c-46 -77 -58 -89 -102
-109 -27 -13 -52 -21 -53 -20 -2 2 20 43 50 91 43 71 60 90 93 105 22 10 46
18 52 18 7 1 -11 -38 -40 -85z m-1734 44 c23 -11 38 -23 32 -24 -5 -2 -52 -13
-103 -24 l-93 -20 -50 21 c-27 12 -47 24 -45 26 8 8 158 41 189 42 15 1 47 -9
70 -21z m1520 -126 c-51 -71 -63 -82 -107 -96 -28 -8 -52 -13 -54 -11 -3 2 22
40 54 84 53 72 64 81 109 94 28 8 51 13 53 11 2 -1 -23 -38 -55 -82z m-1298
48 c30 -12 28 -13 -73 -45 -100 -32 -105 -33 -148 -18 -24 8 -44 18 -44 22 0
4 35 19 78 34 81 28 132 30 187 7z m196 -46 c21 -4 39 -10 39 -13 0 -11 -183
-86 -200 -83 -8 2 -33 8 -54 13 l-39 11 94 43 c52 24 100 41 107 39 8 -2 31
-7 53 -10z m882 -58 c-61 -67 -73 -76 -121 -86 -30 -7 -55 -10 -57 -8 -9 9
143 157 165 161 87 15 87 13 13 -67z m-615 19 c2 -2 -37 -26 -87 -54 -89 -52
-91 -52 -148 -44 l-58 8 90 52 c86 50 92 52 145 46 30 -3 56 -7 58 -8z m385
-55 c-54 -48 -86 -70 -104 -70 -15 0 -42 -3 -60 -6 l-34 -5 40 36 c110 100
134 115 186 115 l50 0 -78 -70z m-165 45 c1 -1 -32 -28 -75 -59 -74 -53 -81
-56 -137 -56 -33 0 -57 2 -55 5 3 2 42 31 87 63 78 57 84 59 129 54 27 -2 49
-6 51 -7z"/>
<path d="M4200 4920 c0 -162 2 -190 15 -190 13 0 15 28 15 190 0 162 -2 190
-15 190 -13 0 -15 -28 -15 -190z"/>
<path d="M4400 4920 c0 -162 2 -190 15 -190 13 0 15 28 15 190 0 162 -2 190
-15 190 -13 0 -15 -28 -15 -190z"/>
<path d="M4610 4911 c0 -155 2 -181 15 -181 13 0 15 24 13 177 -2 130 -6 177
-15 181 -10 3 -13 -37 -13 -177z"/>
<path d="M3990 4905 c0 -149 2 -175 15 -175 13 0 15 26 15 175 0 149 -2 175
-15 175 -13 0 -15 -26 -15 -175z"/>
<path d="M3797 5033 c-4 -3 -7 -267 -7 -585 l0 -578 -90 0 -90 0 0 545 c0 478
-2 545 -15 545 -13 0 -15 -67 -15 -545 l0 -545 -85 0 -85 0 0 496 c0 392 -3
495 -12 492 -10 -4 -14 -114 -16 -496 l-2 -492 -90 0 -90 0 0 431 c0 382 -2
430 -15 419 -13 -11 -15 -71 -15 -431 l0 -419 -85 0 -85 0 0 341 c0 302 -2
340 -15 329 -13 -11 -15 -61 -15 -341 l0 -329 -87 0 -88 0 3 117 c2 65 1 160
-3 211 -6 82 -9 91 -21 75 -10 -14 -13 -63 -14 -210 l0 -193 -96 0 -95 0 3
-37 3 -38 1753 -3 1752 -2 0 40 0 40 -105 0 -105 0 0 213 c-1 170 -4 216 -15
231 -13 18 -15 -6 -15 -212 l0 -232 -90 0 -90 0 0 339 c0 289 -2 340 -15 351
-13 11 -15 -28 -15 -339 l0 -351 -85 0 -85 0 -2 432 c-2 334 -6 432 -15 436
-10 3 -13 -88 -13 -432 l0 -436 -90 0 -90 0 0 499 c0 434 -2 500 -15 505 -13
5 -15 -55 -15 -499 l0 -505 -85 0 -85 0 0 550 c0 482 -2 550 -15 550 -13 0
-15 -68 -15 -550 l0 -550 -90 0 -90 0 0 585 c0 513 -2 585 -15 585 -13 0 -15
-72 -15 -585 l0 -585 -85 0 -85 0 0 186 c0 144 -3 185 -12 182 -10 -4 -14 -52
-16 -186 l-2 -182 -90 0 -90 0 0 141 c0 108 -3 140 -12 137 -10 -3 -14 -43
-16 -141 l-3 -137 -84 0 -84 0 -3 137 c-2 98 -6 138 -15 141 -10 3 -13 -29
-13 -137 l0 -141 -90 0 -90 0 -2 182 c-2 134 -6 182 -15 186 -10 3 -13 -38
-13 -182 l0 -186 -85 0 -85 0 0 585 c0 322 -4 585 -8 585 -5 0 -12 -3 -15 -7z"/>
<path d="M2893 3596 l-28 -24 -3 -289 c-2 -191 0 -301 8 -325 26 -88 168 -93
197 -8 11 33 18 260 8 260 -2 0 -20 -7 -39 -16 l-34 -17 -4 -98 c-3 -107 -17
-140 -44 -105 -11 16 -14 69 -14 275 0 141 3 266 6 279 4 12 14 22 24 22 22 0
30 -37 30 -135 l0 -73 38 13 c35 12 37 15 40 62 6 83 -7 153 -33 179 -34 34
-112 34 -152 0z"/>
<path d="M3403 3596 l-28 -24 0 -316 c0 -310 0 -316 22 -337 14 -14 38 -23 70
-26 42 -5 54 -2 79 20 l29 25 3 311 3 312 -30 29 c-39 40 -106 42 -148 6z m95
-336 c2 -290 -1 -317 -35 -288 -18 15 -19 548 -1 566 30 30 33 2 36 -278z"/>
<path d="M3891 3582 c12 -34 8 -639 -5 -664 -7 -16 -2 -18 53 -18 58 0 61 1
51 19 -5 11 -10 84 -10 165 l0 146 42 0 c24 0 49 -7 60 -17 17 -15 18 -13 18
57 0 58 -3 71 -12 62 -7 -7 -34 -12 -60 -12 l-48 0 0 105 0 105 54 0 c45 0 58
-4 70 -22 15 -21 16 -19 16 40 l0 62 -119 0 -120 0 10 -28z"/>
<path d="M4437 3588 c11 -31 10 -648 -1 -670 -7 -16 -2 -18 53 -18 58 0 61 1
51 19 -5 11 -10 84 -10 165 l0 146 42 0 c24 0 49 -7 60 -17 17 -15 18 -13 18
63 -1 59 -3 74 -11 62 -7 -13 -23 -18 -59 -18 l-50 0 0 105 0 105 54 0 c45 0
58 -4 70 -22 15 -21 16 -19 16 40 l0 62 -121 0 -120 0 8 -22z"/>
<path d="M4988 3269 c2 -248 0 -345 -9 -355 -10 -12 7 -14 110 -14 l121 0 0
58 c-1 43 -3 53 -11 40 -8 -14 -23 -18 -64 -18 l-55 0 0 125 0 125 32 0 c17 0
40 -7 50 -17 17 -15 18 -13 18 62 0 76 0 78 -19 61 -12 -11 -31 -16 -51 -14
l-32 3 0 100 0 100 47 3 c34 2 52 -2 66 -14 18 -17 19 -15 19 39 l0 57 -112 0
-113 0 3 -341z"/>
<path d="M5507 3583 c5 -16 8 -163 8 -328 0 -165 -3 -312 -8 -327 l-7 -28 115
0 115 0 0 52 c0 40 -3 49 -12 40 -7 -7 -36 -12 -65 -12 l-53 0 0 125 0 125 32
0 c17 0 40 -7 50 -17 17 -15 18 -13 18 63 -1 59 -3 74 -11 62 -7 -12 -22 -18
-49 -18 l-40 0 0 105 0 105 47 0 c29 0 53 -6 65 -17 17 -15 18 -14 18 40 l0
57 -115 0 -115 0 7 -27z"/>
<path d="M2531 3324 c-26 -22 -31 -33 -31 -70 0 -60 34 -94 95 -94 89 0 129
98 66 161 -39 38 -87 39 -130 3z"/>
<path d="M6007 3339 c-9 -5 -24 -24 -33 -41 -52 -100 78 -188 158 -108 27 28
30 36 25 73 -7 54 -44 87 -95 87 -20 0 -45 -5 -55 -11z"/>
<path d="M2572 2673 l3 -38 1753 -3 1752 -2 0 40 0 40 -1756 0 -1755 0 3 -37z"/>
<path d="M5317 2078 c-9 -5 -17 -19 -17 -32 0 -25 22 -51 33 -39 4 3 7 -1 7
-11 0 -13 -5 -16 -20 -11 -15 5 -18 3 -14 -10 4 -9 15 -15 28 -13 18 3 21 11
24 59 3 60 -8 76 -41 57z m23 -35 c0 -20 -3 -24 -11 -16 -7 7 -9 19 -6 27 10
24 17 19 17 -11z"/>
<path d="M5435 2076 c-12 -9 -15 -24 -13 -61 3 -46 5 -50 28 -50 23 0 25 4 28
56 3 61 -11 79 -43 55z m25 -51 c0 -25 -4 -45 -10 -45 -5 0 -10 20 -10 45 0
25 5 45 10 45 6 0 10 -20 10 -45z"/>
<path d="M3240 2020 c0 -57 1 -60 25 -60 14 0 25 5 25 10 0 6 -7 10 -15 10 -8
0 -15 7 -15 15 0 8 7 15 15 15 8 0 15 5 15 10 0 6 -7 10 -15 10 -23 0 -18 30
8 40 20 8 19 9 -10 9 l-33 1 0 -60z"/>
<path d="M3356 2065 c-6 -16 13 -55 26 -55 5 0 8 -7 8 -15 0 -18 -17 -20 -23
-2 -2 6 -7 9 -11 6 -14 -13 7 -40 28 -37 29 4 32 33 7 64 -11 15 -18 31 -14
37 5 8 8 7 11 -1 5 -17 22 -15 22 3 0 20 -46 20 -54 0z"/>
<path d="M3480 2025 c8 -71 20 -82 20 -19 0 28 5 55 12 62 9 9 6 12 -13 12
-24 0 -25 -1 -19 -55z"/>
<path d="M5091 2071 c-9 -6 -10 -11 -2 -15 6 -4 11 -27 11 -52 0 -24 5 -44 10
-44 6 0 10 27 10 60 0 60 -4 67 -29 51z"/>
<path d="M5190 2045 c0 -22 6 -38 15 -41 8 -4 15 -11 15 -16 0 -6 -7 -7 -16
-4 -10 4 -14 1 -12 -6 3 -7 14 -14 26 -16 21 -3 22 1 22 57 0 58 -1 61 -25 61
-22 0 -25 -4 -25 -35z m33 -6 c-4 -15 -8 -17 -13 -8 -10 15 -1 41 10 34 5 -3
6 -14 3 -26z"/>
<path d="M4062 2019 c-115 -11 -198 -29 -182 -39 75 -46 735 -46 810 0 8 5 -6
12 -41 19 -139 29 -405 38 -587 20z"/>
<path d="M4695 1959 c-28 -9 -89 -23 -135 -29 -102 -14 -370 -18 -497 -7 l-93
9 0 -29 c0 -41 27 -139 55 -201 55 -120 227 -245 340 -246 56 -1 146 36 207
84 l37 30 31 -31 c28 -28 35 -31 71 -25 134 22 249 149 249 276 0 69 -16 100
-60 123 -35 18 -94 16 -114 -4 -19 -17 -26 -9 -26 31 0 22 -3 39 -7 39 -5 -1
-31 -10 -58 -20z m223 -85 c30 -34 30 -116 1 -179 -29 -62 -108 -130 -174
-151 -51 -16 -55 -16 -80 0 -30 20 -31 59 -2 64 14 3 18 -1 15 -16 -2 -10 2
-21 7 -23 17 -7 18 42 1 54 -13 11 -11 21 21 85 33 66 38 71 53 57 42 -38 105
-1 74 44 -19 26 -39 18 -22 -9 16 -24 6 -34 -27 -26 -21 5 -25 12 -25 40 0 50
9 67 44 82 40 18 85 9 114 -22z"/>
</g>
</svg>
